<?xml version="1.0" encoding="UTF-8" standalone="no"?>
<!-- Created with Inkscape (http://www.inkscape.org/) -->

<svg
   width="14.371225mm"
   height="12.288886mm"
   viewBox="0 0 14.371225 12.288886"
   version="1.1"
   id="svg472"
   inkscape:version="1.2 (dc2aeda, 2022-05-15)"
   sodipodi:docname="beehive_logo.svg"
   inkscape:export-filename="../../../../../../../../bitmap.png"
   inkscape:export-xdpi="96"
   inkscape:export-ydpi="96"
   xmlns:inkscape="http://www.inkscape.org/namespaces/inkscape"
   xmlns:sodipodi="http://sodipodi.sourceforge.net/DTD/sodipodi-0.dtd"
   xmlns="http://www.w3.org/2000/svg"
   xmlns:svg="http://www.w3.org/2000/svg">
  <sodipodi:namedview
     id="namedview474"
     pagecolor="#ffffff"
     bordercolor="#999999"
     borderopacity="1"
     inkscape:showpageshadow="0"
     inkscape:pageopacity="0"
     inkscape:pagecheckerboard="true"
     inkscape:deskcolor="#d1d1d1"
     inkscape:document-units="mm"
     showgrid="false"
     showborder="true"
     borderlayer="true"
     inkscape:zoom="9.3379616"
     inkscape:cx="30.895394"
     inkscape:cy="23.452656"
     inkscape:window-width="1440"
     inkscape:window-height="788"
     inkscape:window-x="1680"
     inkscape:window-y="175"
     inkscape:window-maximized="0"
     inkscape:current-layer="layer1" />
  <defs
     id="defs469">
    <inkscape:path-effect
       effect="bspline"
       id="path-effect4579"
       is_visible="true"
       weight="33.333333"
       steps="2"
       helper_size="0"
       apply_no_weight="true"
       apply_with_weight="true"
       only_selected="false"
       lpeversion="0" />
    <inkscape:path-effect
       effect="bspline"
       id="path-effect4579-6"
       is_visible="true"
       weight="33.333333"
       steps="2"
       helper_size="0"
       apply_no_weight="true"
       apply_with_weight="true"
       only_selected="false"
       lpeversion="0" />
  </defs>
  <g
     inkscape:label="Layer 1"
     inkscape:groupmode="layer"
     id="layer1"
     transform="translate(-122.43727,-90.7581)">
    <g
       id="g5091"
       style="fill:#ffffff"
       transform="translate(107.62288,89.208097)">
      <g
         id="g6959"
         transform="translate(0.04999813)">
        <path
           inkscape:connector-curvature="0"
           id="rect5037-4"
           d="M 16.55005,10.637126 C 17.503134,9.664752 20.5,10 20.5,10 c 0,0 -1.677411,2.512136 -2.965572,2.715082 -0.465115,0.07328 -0.861131,-0.297152 -1.043945,-0.647162 -0.208968,-0.400075 -0.325294,-1.038144 0.05956,-1.430794 z"
           style="opacity:1;fill:none;fill-opacity:1;stroke:#000000;stroke-width:0.1;stroke-linecap:round;stroke-linejoin:round;stroke-miterlimit:4;stroke-dasharray:none;stroke-dashoffset:0;stroke-opacity:1;paint-order:normal" />
        <path
           inkscape:connector-curvature="0"
           id="rect5037-4-7"
           d="M 27.34995,10.637126 C 26.396866,9.664752 23.4,10 23.4,10 c 0,0 1.677411,2.512136 2.965572,2.715082 0.465115,0.07328 0.861131,-0.297152 1.043945,-0.647162 0.208968,-0.400075 0.325294,-1.038144 -0.05956,-1.430794 z"
           style="opacity:1;fill:none;fill-opacity:1;stroke:#000000;stroke-width:0.1;stroke-linecap:round;stroke-linejoin:round;stroke-miterlimit:4;stroke-dasharray:none;stroke-dashoffset:0;stroke-opacity:1;paint-order:normal" />
      </g>
      <path
         style="opacity:1;fill:#ffffff;fill-opacity:1;stroke:#000000;stroke-width:0.1;stroke-linecap:round;stroke-linejoin:round;stroke-miterlimit:4;stroke-dasharray:none;stroke-dashoffset:0;stroke-opacity:1;paint-order:normal"
         d="M 16,7.8266794 C 17.690314,7.5023672 20.5,9.9 20.5,9.9 c 0,0 -3.56624,1.377371 -5.030214,0.69635 C 14.941189,10.350454 14.810732,9.705129 14.882692,9.2269146 14.964942,8.6802988 15.317441,7.9576386 16,7.8266794 Z"
         id="rect5037" />
      <path
         style="opacity:1;fill:#ffffff;fill-opacity:1;stroke:#000000;stroke-width:0;stroke-linecap:round;stroke-linejoin:round;stroke-miterlimit:4;stroke-dasharray:none;stroke-dashoffset:0;stroke-opacity:1;paint-order:normal"
         d="M 74.88768,42.317428 C 74.666287,41.60064 74.414307,40.164248 74.414307,39.619004 V 39.51294 h 8.734374 8.734375 l -3.12e-4,0.164063 c -9.97e-4,0.544184 -0.195478,1.693678 -0.428103,2.530345 l -0.08495,0.305592 h -8.210809 -8.210809 z"
         id="path6938"
         inkscape:connector-curvature="0"
         transform="scale(0.26458333)" />
      <path
         style="opacity:1;fill:#ffffff;fill-opacity:1;stroke:#ffffff;stroke-width:0.377953;stroke-linecap:round;stroke-linejoin:round;stroke-miterlimit:4;stroke-dasharray:none;stroke-dashoffset:0;stroke-opacity:1;paint-order:normal"
         d="M 74.88768,42.317428 C 74.666287,41.60064 74.414307,40.164248 74.414307,39.619004 V 39.51294 h 8.734374 8.734375 l -3.12e-4,0.164063 c -9.97e-4,0.544184 -0.195478,1.693678 -0.428103,2.530345 l -0.08495,0.305592 h -8.210809 -8.210809 z"
         id="path6940"
         inkscape:connector-curvature="0"
         transform="scale(0.26458333)" />
      <path
         sodipodi:nodetypes="acaaa"
         inkscape:connector-curvature="0"
         id="rect5037-7"
         d="M 28,7.8266795 C 26.309686,7.5023673 23.5,9.9 23.5,9.9 c 0,0 3.56624,1.377371 5.030214,0.69635 0.528597,-0.245896 0.659054,-0.891221 0.587094,-1.3694353 C 29.035058,8.6802989 28.682559,7.9576387 28,7.8266795 Z"
         style="opacity:1;fill:#ffffff;fill-opacity:1;stroke:#000000;stroke-width:0.1;stroke-linecap:round;stroke-linejoin:round;stroke-miterlimit:4;stroke-dasharray:none;stroke-dashoffset:0;stroke-opacity:1;paint-order:normal" />
    </g>
    <g
       id="g4565"
       transform="translate(107.65757,89.608097)">
      <path
         inkscape:connector-curvature="0"
         id="path822"
         d="m 21.10496,6.6 v 1"
         style="fill:none;stroke:#000000;stroke-width:0.2;stroke-linecap:butt;stroke-linejoin:miter;stroke-miterlimit:4;stroke-dasharray:none;stroke-opacity:1" />
      <path
         inkscape:connector-curvature="0"
         id="path822-7"
         d="m 22.80496,6.6 v 1"
         style="fill:none;stroke:#000000;stroke-width:0.2;stroke-linecap:butt;stroke-linejoin:miter;stroke-miterlimit:4;stroke-dasharray:none;stroke-opacity:1" />
    </g>
    <g
       id="g4704"
       transform="translate(107.62288,89.508097)">
      <path
         sodipodi:nodetypes="ccccc"
         inkscape:original-d="m 20.800002,5.9999998 c -0.0664,-0.1002644 -0.133069,-0.2002644 -0.2,-0.2999999 -0.03305,-0.1335167 -0.0664,-0.266931 -0.1,-0.3999999 2.64e-4,-0.1669317 2.63e-4,-0.3335976 -2e-6,-0.5 0.0336,-0.1002648 0.1,-0.3 0.1,-0.3"
         inkscape:path-effect="#path-effect4579"
         inkscape:connector-curvature="0"
         id="path4577"
         d="m 20.800002,5.9999998 c -0.06671,-0.10006 -0.133374,-0.200061 -0.183367,-0.3167501 -0.04999,-0.116689 -0.08335,-0.2501025 -0.09999,-0.400142 C 20.500001,5.1330683 20.500001,4.9664024 20.51672,4.833042 20.533439,4.6996817 20.566667,4.6 20.6,4.5"
         style="fill:none;stroke:#000000;stroke-width:0.1;stroke-linecap:round;stroke-linejoin:miter;stroke-miterlimit:4;stroke-dasharray:none;stroke-opacity:1" />
      <circle
         cy="4.25"
         cx="20.65"
         id="path4599"
         style="opacity:1;fill:none;fill-opacity:1;stroke:#000000;stroke-width:0.1;stroke-linecap:round;stroke-linejoin:round;stroke-miterlimit:4;stroke-dasharray:none;stroke-dashoffset:0;stroke-opacity:1;paint-order:normal"
         r="0.2" />
    </g>
    <g
       id="g4696"
       transform="translate(107.62288,89.5081)">
      <path
         sodipodi:nodetypes="ccccc"
         inkscape:original-d="m 23.2,5.9999973 c 0,0 0.399776,-0.59953 0.6,-0.8999973 C 23.867094,4.6987584 23.933535,4.3001115 24,3.9 23.933535,3.4326299 23.866903,2.9662033 23.8,2.5 23.666988,2.2331823 23.4,1.7 23.4,1.7"
         inkscape:path-effect="#path-effect4579-6"
         inkscape:connector-curvature="0"
         id="path4577-1"
         d="M 23.2,5.9999973 C 23.4,5.6999982 23.599715,5.4004266 23.733297,5.0495746 23.86688,4.6987227 23.933321,4.3000758 23.93328,3.866374 23.933239,3.4326722 23.866607,2.9662457 23.766639,2.5997933 23.666671,2.233341 23.533333,1.9666667 23.4,1.7"
         style="fill:none;stroke:#000000;stroke-width:0.1;stroke-linecap:round;stroke-linejoin:miter;stroke-miterlimit:4;stroke-dasharray:none;stroke-opacity:1" />
      <circle
         r="0.2"
         cy="1.5"
         cx="23.35"
         id="path4599-8"
         style="opacity:1;fill:none;fill-opacity:1;stroke:#000000;stroke-width:0.1;stroke-linecap:round;stroke-linejoin:round;stroke-miterlimit:4;stroke-dasharray:none;stroke-dashoffset:0;stroke-opacity:1;paint-order:normal" />
    </g>
    <g
       id="g4665"
       transform="translate(107.86071,89.308097)">
      <path
         inkscape:connector-curvature="0"
         id="path4624"
         d="M 22.403832,1.9 21.3,3"
         style="fill:none;stroke:#000000;stroke-width:0.1;stroke-linecap:round;stroke-linejoin:round;stroke-miterlimit:4;stroke-dasharray:none;stroke-opacity:1"
         sodipodi:nodetypes="cc" />
      <path
         inkscape:connector-curvature="0"
         id="path4624-5"
         d="m 22.1,3 -1,1"
         style="fill:none;stroke:#000000;stroke-width:0.1;stroke-linecap:round;stroke-linejoin:round;stroke-miterlimit:4;stroke-dasharray:none;stroke-opacity:1" />
      <path
         inkscape:connector-curvature="0"
         id="path4641"
         d="m 21.3,3 h 0.8"
         style="fill:none;stroke:#000000;stroke-width:0.1;stroke-linecap:round;stroke-linejoin:round;stroke-miterlimit:4;stroke-dasharray:none;stroke-opacity:1" />
      <path
         inkscape:connector-curvature="0"
         id="path4643"
         d="M 21.1,3.9999999 21.2,3.4999998"
         style="fill:none;stroke:#000000;stroke-width:0.1;stroke-linecap:round;stroke-linejoin:miter;stroke-miterlimit:4;stroke-dasharray:none;stroke-opacity:1" />
      <path
         inkscape:connector-curvature="0"
         id="path4643-5"
         d="M 21.6,3.9 21.1,4"
         style="fill:none;stroke:#000000;stroke-width:0.1;stroke-linecap:round;stroke-linejoin:miter;stroke-miterlimit:4;stroke-dasharray:none;stroke-opacity:1" />
    </g>
    <ellipse
       style="fill:none;fill-opacity:1;stroke:#000000;stroke-width:0.0996269;stroke-miterlimit:4;stroke-dasharray:none;stroke-dashoffset:0;stroke-opacity:1;paint-order:normal"
       id="path818"
       cx="129.62288"
       cy="96.708099"
       rx="1.9501865"
       ry="1.4501865" />
    <path
       id="path4938"
       d="m 131.18635,101.60786 h -1.55287 -1.57407 a 2.3743831,2.807208 0 0 0 1.56373,0.69918 2.3743831,2.807208 0 0 0 1.56321,-0.69918 z"
       style="fill:none;fill-opacity:1;stroke:#000000;stroke-width:0.1;stroke-linecap:round;stroke-linejoin:round;stroke-miterlimit:4;stroke-dasharray:none;stroke-dashoffset:0;stroke-opacity:1;paint-order:normal"
       inkscape:connector-curvature="0" />
    <path
       id="path4936"
       d="m 131.83696,100.50818 h -2.20348 -2.22106 a 2.3743831,2.807208 0 0 0 0.64699,1.09968 h 1.57407 1.55287 a 2.3743831,2.807208 0 0 0 0.65061,-1.09968 z"
       style="fill:none;fill-opacity:1;stroke:#000000;stroke-width:0.1;stroke-linecap:round;stroke-linejoin:round;stroke-miterlimit:4;stroke-dasharray:none;stroke-dashoffset:0;stroke-opacity:1;paint-order:normal"
       inkscape:connector-curvature="0" />
    <path
       id="path4933"
       d="m 127.25326,99.607979 a 2.3743831,2.807208 0 0 0 0.15916,0.900201 h 2.22106 2.20348 a 2.3743831,2.807208 0 0 0 0.1571,-0.900201 h -2.36058 z"
       style="fill:none;fill-opacity:1;stroke:#000000;stroke-width:0.1;stroke-linecap:round;stroke-linejoin:round;stroke-miterlimit:4;stroke-dasharray:none;stroke-dashoffset:0;stroke-opacity:1;paint-order:normal"
       inkscape:connector-curvature="0" />
    <path
       id="path4931"
       d="m 131.84006,98.508305 h -2.20658 -2.22881 a 2.3743832,2.807208 0 0 0 -0.15606,0.99167 2.3743832,2.807208 0 0 0 0.005,0.108004 h 2.38022 2.36058 a 2.3743832,2.807208 0 0 0 0.003,-0.108004 2.3743832,2.807208 0 0 0 -0.1571,-0.99167 z"
       style="fill:none;fill-opacity:1;stroke:#000000;stroke-width:0.1;stroke-linecap:round;stroke-linejoin:round;stroke-miterlimit:4;stroke-dasharray:none;stroke-dashoffset:0;stroke-opacity:1;paint-order:normal"
       inkscape:connector-curvature="0" />
    <path
       id="path4706"
       d="m 127.97363,97.480977 a 2.3743832,2.807208 0 0 0 -0.56896,1.027328 h 2.22881 2.20658 a 2.3743832,2.807208 0 0 0 -0.57051,-1.026811 1.9501864,1.4501864 0 0 1 -1.64641,0.676961 1.9501864,1.4501864 0 0 1 -1.64951,-0.677478 z"
       style="fill:none;fill-opacity:1;stroke:#000000;stroke-width:0.1;stroke-linecap:round;stroke-linejoin:round;stroke-miterlimit:4;stroke-dasharray:none;stroke-dashoffset:0;stroke-opacity:1;paint-order:normal"
       inkscape:connector-curvature="0" />
    <path
       inkscape:connector-curvature="0"
       id="path4942"
       d="m 127.30224,99.528281 c -0.004,-0.02803 0.006,-0.255805 0.015,-0.342542 0.0104,-0.09746 0.0294,-0.222761 0.0471,-0.310623 0.0172,-0.08508 0.0632,-0.269557 0.0748,-0.299634 l 0.006,-0.01608 h 2.17773 2.17772 l 0.0117,0.03946 c 0.0796,0.268177 0.121,0.530686 0.12737,0.80682 l 0.003,0.147625 h -2.31862 -2.31862 z"
       style="fill:#000000;fill-opacity:1;stroke:#000000;stroke-width:0.1;stroke-linecap:round;stroke-linejoin:round;stroke-miterlimit:4;stroke-dasharray:none;stroke-dashoffset:0;stroke-opacity:1;paint-order:normal" />
    <path
       inkscape:connector-curvature="0"
       id="path4944"
       d="m 128.04443,101.5136 c -0.17649,-0.19977 -0.29933,-0.3829 -0.41838,-0.62371 -0.0458,-0.0926 -0.13954,-0.31285 -0.13954,-0.3278 0,-0.002 0.96161,-0.003 2.13691,-0.003 1.5263,0 2.1369,0.002 2.1369,0.006 0,0.017 -0.0835,0.21457 -0.13446,0.31817 -0.11236,0.22834 -0.24578,0.42826 -0.41007,0.61445 l -0.0485,0.055 h -1.5441 -1.54409 z"
       style="fill:#000000;fill-opacity:1;stroke:#000000;stroke-width:0.1;stroke-linecap:round;stroke-linejoin:round;stroke-miterlimit:4;stroke-dasharray:none;stroke-dashoffset:0;stroke-opacity:1;paint-order:normal" />
    <g
       id="g4988"
       transform="matrix(1,0,0,0.77777778,107.63327,92.119208)">
      <path
         style="fill:none;stroke:#000000;stroke-width:0.1;stroke-linecap:round;stroke-linejoin:miter;stroke-miterlimit:4;stroke-dasharray:none;stroke-opacity:1"
         d="m 21.989613,14 -0.2,-0.9"
         id="path5022"
         inkscape:connector-curvature="0" />
      <path
         style="fill:none;stroke:#000000;stroke-width:0.1;stroke-linecap:round;stroke-linejoin:miter;stroke-miterlimit:4;stroke-dasharray:none;stroke-opacity:1"
         d="m 21.989613,14 0.2,-0.9"
         id="path5024"
         inkscape:connector-curvature="0" />
      <path
         style="opacity:1;fill:#000000;fill-opacity:1;stroke:#000000;stroke-width:0.377953;stroke-linecap:round;stroke-linejoin:round;stroke-miterlimit:4;stroke-dasharray:none;stroke-dashoffset:0;stroke-opacity:1;paint-order:normal"
         d="m 83.144628,51.986671 c -0.0036,-0.0091 -0.118423,-0.521215 -0.255169,-1.138 -0.136746,-0.616785 -0.251009,-1.131395 -0.253918,-1.143577 -0.0052,-0.02166 -0.0021,-0.02195 0.140634,-0.01303 0.08026,0.005 0.313723,0.0067 0.518811,0.0037 l 0.372886,-0.0055 -0.0058,0.02401 c -0.0032,0.01321 -0.117664,0.528656 -0.254439,1.145441 -0.136775,0.616785 -0.250444,1.126399 -0.252596,1.132476 -0.0022,0.0061 -0.0069,0.0036 -0.01045,-0.0055 z"
         id="path5026"
         inkscape:connector-curvature="0"
         transform="matrix(0.26458333,0,0,0.26458333,-0.01038644,0)" />
    </g>
  </g>
</svg>
